<svg xmlns="http://www.w3.org/2000/svg" viewBox="-20.00 -121.50 1022.27 165.34" width="1022.27" height="165.337" role="img" aria-labelledby="t">
  <title id="t">Mindful Companion</title>
  <g transform="translate(-29.22 -122.93) scale(2.1642)"><defs></defs><g transform="translate(32 32) scale(0.9) translate(-32 -32)"><g transform="translate(-3.5 0)"><path d="M 16.5 9 C 21 11.5, 23.6 17, 24 22 C 24.1 23.4, 23.4 24.4, 23.6 25.4 C 25.6 27.8, 28.6 30.4, 29.4 32.6 C 29.9 33.9, 29.1 34.8, 27.8 35 C 26.9 35.2, 26.1 35.3, 25.3 35.6 C 25.5 36.8, 26.4 37.5, 26.6 38.6 C 26.3 39.3, 25.9 39.6, 25.9 39.9 C 26.8 40.5, 27 41.7, 26.2 42.8 C 25.7 43.6, 26.2 44.6, 26.8 45.6 C 27.2 47.2, 25.9 48.9, 23.8 49.8 C 22.6 50.3, 21.8 50.6, 21.2 51 L 19.8 58" stroke="currentColor" stroke-width="2.8" fill="none" stroke-linecap="round" stroke-linejoin="round"/><path d="M 19 27.4 Q 20.8 28.9, 22.6 27.2" stroke="currentColor" stroke-width="2.24" fill="none" stroke-linecap="round" stroke-linejoin="round"/></g><path d="M 32 6 V 58" stroke="currentColor" stroke-width="1.20" stroke-linecap="round" opacity="0.28"/><g transform="matrix(-1 0 0 1 64 0) translate(-3.5 0)" opacity="0.45"><path d="M 16.5 9 C 21 11.5, 23.6 17, 24 22 C 24.1 23.4, 23.4 24.4, 23.6 25.4 C 25.6 27.8, 28.6 30.4, 29.4 32.6 C 29.9 33.9, 29.1 34.8, 27.8 35 C 26.9 35.2, 26.1 35.3, 25.3 35.6 C 25.5 36.8, 26.4 37.5, 26.6 38.6 C 26.3 39.3, 25.9 39.6, 25.9 39.9 C 26.8 40.5, 27 41.7, 26.2 42.8 C 25.7 43.6, 26.2 44.6, 26.8 45.6 C 27.2 47.2, 25.9 48.9, 23.8 49.8 C 22.6 50.3, 21.8 50.6, 21.2 51 L 19.8 58" stroke="currentColor" stroke-width="2.8" fill="none" stroke-linecap="round" stroke-linejoin="round"/><path d="M 19 27.4 Q 20.8 28.9, 22.6 27.2" stroke="currentColor" stroke-width="2.24" fill="none" stroke-linecap="round" stroke-linejoin="round"/></g></g></g><g transform="translate(102.07 0)"><path d="M47.4 -16 42.8 -14.7 63 -65.6Q63.9 -68.1 65.1 -69Q66.4 -70 68.6 -70H80.5Q82 -70 82.7 -69.4Q83.4 -68.7 83.4 -67.6Q83.4 -66.6 82.9 -66Q82.4 -65.4 81.3 -65L78.7 -64.3Q76.9 -63.8 76.3 -62.8Q75.6 -61.8 75.8 -59.3L79.5 -9.5Q79.7 -7.7 80.3 -6.9Q81 -6.1 82.5 -5.7L85.1 -5Q86.1 -4.7 86.6 -4.1Q87.1 -3.5 87.1 -2.5Q87.1 -1.4 86.4 -0.7Q85.7 0 84.2 0H62.4Q60.9 0 60.2 -0.6Q59.4 -1.3 59.4 -2.4Q59.4 -3.3 59.9 -4Q60.5 -4.6 61.6 -5L64.2 -5.7Q65.9 -6.2 66.6 -7Q67.4 -7.8 67.2 -9.5L63.1 -61.1L67 -61.3L45.8 -7.6Q44.9 -5.3 44.1 -4.6Q43.2 -3.8 42 -3.8Q41.2 -3.8 40.5 -4.1Q39.8 -4.4 39.1 -5.2Q38.5 -6.1 37.8 -7.8L16.4 -60.6L20.3 -61.8L16 -10.3Q15.8 -8.3 16.7 -7.3Q17.6 -6.3 19.4 -5.6L22.1 -4.8Q23 -4.4 23.4 -3.9Q23.9 -3.4 23.9 -2.5Q23.9 -1.3 23.2 -0.7Q22.5 0 21 0H5.3Q3.8 0 3.1 -0.6Q2.4 -1.3 2.4 -2.4Q2.4 -3.5 3 -4.1Q3.6 -4.7 4.7 -5.1L7 -5.7Q8.7 -6.2 9.5 -7.3Q10.4 -8.3 10.5 -10.3L14.7 -59.8Q14.9 -61.7 14.1 -62.8Q13.4 -63.8 11.7 -64.3L9.2 -64.9Q8.1 -65.3 7.5 -65.9Q6.9 -66.6 6.9 -67.6Q6.9 -70 9.9 -70H21.8Q24 -70 25.2 -69.1Q26.3 -68.1 27.2 -65.8Z M110.5 -44.3V-8.3Q110.5 -6.7 111 -5.9Q111.5 -5.2 112.5 -4.9L114.5 -4.4Q115.4 -4 115.8 -3.5Q116.3 -2.9 116.3 -2.1Q116.3 -1.1 115.7 -0.6Q115 0 113.7 0H96Q94.8 0 94.2 -0.6Q93.5 -1.1 93.5 -2.1Q93.5 -2.9 94 -3.5Q94.4 -4 95.3 -4.4L97.3 -4.9Q98.3 -5.2 98.9 -5.9Q99.4 -6.7 99.4 -8.2V-35.9Q99.4 -37.3 98.9 -37.9Q98.5 -38.5 97.6 -38.6L94.6 -38.8Q93.7 -39 93.3 -39.5Q92.9 -40 92.9 -40.7Q92.9 -41.5 93.4 -42.1Q93.9 -42.7 95.1 -43.1L103.4 -45.9Q104.9 -46.5 106 -46.8Q107 -47.1 107.9 -47.1Q109.1 -47.1 109.8 -46.3Q110.5 -45.6 110.5 -44.3ZM103.8 -55.7Q100.5 -55.7 98.4 -57.6Q96.3 -59.4 96.3 -62.4Q96.3 -65.4 98.4 -67.2Q100.5 -69 103.8 -69Q107.2 -69 109.3 -67.2Q111.4 -65.3 111.4 -62.4Q111.4 -59.4 109.3 -57.6Q107.2 -55.7 103.8 -55.7Z M139.8 -44.3V-8.3Q139.8 -6.6 140.3 -5.8Q140.7 -5.1 141.8 -4.7L143.7 -4.2Q145.3 -3.5 145.3 -2.1Q145.3 0 142.9 0H125.3Q124.1 0 123.4 -0.6Q122.8 -1.1 122.8 -2.1Q122.8 -2.9 123.2 -3.5Q123.7 -4 124.6 -4.4L126.6 -4.9Q127.6 -5.2 128.1 -5.9Q128.6 -6.7 128.6 -8.2V-35.9Q128.6 -37.3 128.2 -37.9Q127.8 -38.5 126.9 -38.6L123.9 -38.8Q123 -39 122.6 -39.5Q122.1 -40 122.1 -40.7Q122.1 -41.5 122.7 -42.1Q123.2 -42.7 124.4 -43.1L132.7 -45.9Q134.2 -46.5 135.2 -46.8Q136.3 -47.1 137.2 -47.1Q138.4 -47.1 139.1 -46.3Q139.8 -45.6 139.8 -44.3ZM138.3 -33 136 -35.5 138.4 -37.6Q144 -42.9 148.6 -45.2Q153.1 -47.4 157.3 -47.4Q163.4 -47.4 167.2 -43.6Q171.1 -39.7 171.1 -33.1V-8.3Q171.1 -6.7 171.6 -5.9Q172.1 -5.2 173.2 -4.8L175 -4.4Q175.9 -4 176.4 -3.4Q176.9 -2.9 176.9 -2.1Q176.9 -1.1 176.2 -0.6Q175.6 0 174.3 0H156.7Q154.2 0 154.2 -2.1Q154.2 -3.5 155.9 -4.2L157.9 -4.7Q159 -5.1 159.4 -5.9Q159.9 -6.7 159.9 -8.3V-30.8Q159.9 -35.3 157.7 -37.7Q155.4 -40 151.6 -40Q149 -40 146.2 -38.8Q143.4 -37.6 140.4 -34.9Z M218.9 -8.5 218.5 -9V-62.7Q218.5 -64.1 218.1 -64.7Q217.7 -65.2 216.8 -65.4L213.8 -65.6Q212.9 -65.8 212.5 -66.3Q212 -66.8 212 -67.5Q212 -68.3 212.6 -68.9Q213.1 -69.4 214.3 -69.9L222.6 -72.7Q224.1 -73.3 225.1 -73.6Q226.2 -73.9 227.1 -73.9Q228.3 -73.9 229 -73.1Q229.7 -72.4 229.7 -71.1V-8.3Q229.7 -6.7 230.2 -5.9Q230.7 -5.2 231.7 -4.9L233.6 -4.4Q234.5 -4 235 -3.5Q235.5 -2.9 235.5 -2.1Q235.5 -1.1 234.8 -0.6Q234.2 0 232.9 0H224.1Q221.8 0 220.3 -1.4Q218.9 -2.7 218.9 -5.2ZM183.1 -22.1Q183.1 -29.9 186.1 -35.6Q189.2 -41.2 194.4 -44.3Q199.6 -47.4 206 -47.4Q211.8 -47.4 216.4 -44.5Q221 -41.6 223.7 -36.5L221 -32.9Q218.6 -37.4 215.2 -39.7Q211.8 -42 207.8 -42Q204.1 -42 201.1 -39.8Q198.1 -37.7 196.4 -33.5Q194.7 -29.4 194.7 -23.2Q194.7 -17.4 196.4 -13.3Q198.1 -9.3 201 -7.2Q203.9 -5.1 207.7 -5.1Q211.6 -5.1 215 -7.4Q218.4 -9.7 221 -14.1L222.8 -11.1Q219 -5.3 214 -2.1Q209.1 1.2 203.2 1.2Q197.3 1.2 192.8 -1.8Q188.2 -4.7 185.7 -10Q183.1 -15.2 183.1 -22.1Z M260.9 -8.3Q260.9 -6.8 261.5 -5.9Q262.1 -5 263.4 -4.9L268.2 -4.4Q269.4 -4.3 270 -3.7Q270.5 -3 270.5 -2.1Q270.5 0 267.9 0H245.3Q244.1 0 243.5 -0.6Q242.8 -1.1 242.8 -2.1Q242.8 -3 243.3 -3.6Q243.9 -4.1 245 -4.4L247.2 -4.9Q248.4 -5.2 249.1 -6Q249.8 -6.8 249.8 -8.3V-37.1Q249.8 -38.3 249.2 -38.9Q248.7 -39.6 247.2 -40.2L244.8 -40.8Q243.2 -41.4 242.6 -42.1Q241.9 -42.7 241.9 -43.5Q241.9 -44.4 242.5 -44.9Q243.1 -45.5 244.2 -45.5H252.6L249.9 -43.4V-45.3Q249.9 -46.7 249.1 -48.1Q248.3 -49.4 247.3 -51Q246.2 -52.6 245.5 -54.6Q244.7 -56.6 244.7 -59.2Q244.7 -64.9 248.8 -68.6Q253 -72.3 260.2 -72.3Q264.7 -72.3 267.8 -70.8Q271 -69.4 272.6 -66.9Q274.2 -64.5 274.2 -61.5Q274.2 -58.7 272.8 -57.2Q271.4 -55.8 269.2 -55.8Q266.7 -55.8 265.3 -57.3Q263.8 -58.8 263.8 -61.4V-63.7Q263.8 -66 262.6 -67.3Q261.4 -68.5 259 -68.5Q256.1 -68.5 254.5 -66.7Q252.9 -64.9 252.9 -61.7Q252.9 -59.7 253.7 -57.9Q254.4 -56.1 255.5 -54.5Q256.5 -52.9 257.6 -51.5Q258.7 -50 259.4 -48.6Q260.1 -47.1 260.1 -45.6V-43.3L258.5 -45.5H270.2Q271.4 -45.5 272 -45Q272.7 -44.5 272.7 -43.6Q272.7 -42.2 271.4 -41.4Q270.2 -40.5 267.6 -40.5H260.9Z M313.6 -5.6V-9.2L313.2 -9.6V-35.9Q313.2 -37.3 312.8 -37.9Q312.3 -38.4 311.5 -38.6L308.4 -38.8Q307.6 -39 307.2 -39.5Q306.7 -39.9 306.7 -40.7Q306.7 -41.5 307.2 -42.1Q307.8 -42.6 309 -43.1L317.3 -45.9Q318.8 -46.5 319.8 -46.8Q320.8 -47.1 321.7 -47.1Q323 -47.1 323.7 -46.3Q324.3 -45.6 324.3 -44.3V-8.3Q324.3 -6.7 324.9 -5.9Q325.4 -5.2 326.4 -4.9L328.3 -4.4Q329.2 -4 329.7 -3.5Q330.2 -2.9 330.2 -2.1Q330.2 -1.1 329.5 -0.6Q328.9 0 327.6 0H318.9Q316.4 0 315 -1.5Q313.6 -2.9 313.6 -5.6ZM282.6 -13.3V-35.9Q282.6 -37.3 282.2 -37.9Q281.7 -38.4 280.8 -38.6L277.8 -38.8Q277 -39 276.5 -39.5Q276.1 -39.9 276.1 -40.7Q276.1 -41.5 276.6 -42.1Q277.2 -42.6 278.4 -43.1L286.6 -45.9Q288.2 -46.5 289.2 -46.8Q290.2 -47.1 291.1 -47.1Q292.4 -47.1 293.1 -46.3Q293.7 -45.6 293.7 -44.3V-15.6Q293.7 -10.9 295.9 -8.6Q298.2 -6.2 301.8 -6.2Q304.2 -6.2 306.9 -7.4Q309.7 -8.7 312.7 -11.4L314.8 -13.2L317 -10.8L314.7 -8.6Q309.1 -3.4 304.6 -1.1Q300.1 1.2 296.1 1.2Q290.1 1.2 286.4 -2.7Q282.6 -6.6 282.6 -13.3Z M354.2 -71.1V-8.3Q354.2 -6.7 354.7 -5.9Q355.2 -5.2 356.2 -4.9L358.1 -4.4Q359.1 -4 359.5 -3.5Q360 -2.9 360 -2.1Q360 -1.1 359.3 -0.6Q358.7 0 357.4 0H339.7Q338.5 0 337.8 -0.6Q337.2 -1.1 337.2 -2.1Q337.2 -2.9 337.6 -3.5Q338.1 -4 339 -4.4L341 -4.9Q342 -5.2 342.5 -5.9Q343.1 -6.7 343.1 -8.2V-62.7Q343.1 -64.1 342.6 -64.7Q342.2 -65.2 341.3 -65.4L338.3 -65.6Q337.4 -65.8 337 -66.3Q336.5 -66.8 336.5 -67.5Q336.5 -68.3 337.1 -68.9Q337.6 -69.4 338.8 -69.9L347.1 -72.7Q348.6 -73.3 349.7 -73.6Q350.7 -73.9 351.5 -73.9Q352.8 -73.9 353.5 -73.1Q354.2 -72.4 354.2 -71.1Z" fill="currentColor"/><path transform="translate(384.00 0)" d="M58.9 -20.5Q59.7 -20.1 59.9 -18.9Q60 -17.7 58.9 -15.7Q56.4 -10.5 52.2 -6.7Q48 -2.9 42.5 -0.8Q37.1 1.3 30.6 1.3Q22.5 1.3 16.6 -2.6Q10.8 -6.5 8.2 -14Q5.6 -21.4 7.2 -32Q8.4 -40 11.9 -47.1Q15.4 -54.2 20.8 -59.7Q26.1 -65.1 32.8 -68.3Q39.4 -71.4 46.9 -71.4Q49.9 -71.4 52 -70.8Q54.1 -70.3 55.6 -69.6Q57 -68.9 57.9 -68.3Q58.9 -67.8 59.5 -67.8Q60.2 -67.8 60.8 -68.3Q61.4 -68.9 62 -69.5Q62.6 -70.2 63.3 -70.8Q64 -71.3 64.8 -71.3Q65.9 -71.3 66.5 -70.6Q67.1 -69.9 67.2 -68.6L68 -52.6Q68.1 -51.4 67.3 -50.7Q66.6 -50 65.5 -50Q63.5 -50 62.8 -52.3L61.7 -56.1Q60.1 -61.5 56.7 -64Q53.3 -66.4 47.8 -66.4Q42.5 -66.4 37.8 -63.8Q33.2 -61.1 29.4 -56.5Q25.7 -51.8 23.1 -45.8Q20.6 -39.7 19.6 -32.8Q18.1 -23.6 19.6 -17.4Q21.2 -11.3 25 -8.3Q28.9 -5.2 34.2 -5.2Q38.4 -5.2 42 -6.7Q45.7 -8.1 48.9 -11Q52.1 -13.9 54.8 -18.4Q56 -19.8 56.9 -20.4Q57.9 -21 58.9 -20.5Z M95.6 -46.3Q101.6 -46.1 105.6 -43.2Q109.6 -40.4 111.3 -35.4Q112.9 -30.3 111.8 -23.6Q110.9 -17.8 108.3 -13.1Q105.8 -8.5 102 -5.3Q98.2 -2 93.5 -0.4Q88.8 1.2 83.6 1Q77.8 0.8 73.8 -2Q69.8 -4.8 68.1 -9.8Q66.4 -14.9 67.6 -21.8Q68.5 -27.1 70.9 -31.7Q73.3 -36.2 76.9 -39.6Q80.6 -43 85.3 -44.8Q90 -46.6 95.6 -46.3ZM84.9 -3.8Q86.9 -3.7 88.9 -4.5Q90.9 -5.3 92.7 -7Q94.6 -8.7 96.2 -11.2Q97.9 -13.8 99.1 -17.2Q100.4 -20.5 101.1 -24.7Q102.1 -30.2 101.5 -33.8Q100.9 -37.5 99.1 -39.4Q97.2 -41.3 94.5 -41.5Q92.3 -41.7 90.3 -40.8Q88.2 -39.9 86.3 -38Q84.4 -36.2 82.8 -33.6Q81.2 -30.9 80 -27.6Q78.9 -24.3 78.2 -20.4Q77.1 -14.9 77.8 -11.3Q78.4 -7.7 80.2 -5.9Q82.1 -4 84.9 -3.8Z M146.4 -9.3 153.6 -30.1Q155.2 -34.7 154.6 -36.6Q154.1 -38.6 151.6 -38.6Q148.8 -38.6 145.4 -36.2Q141.9 -33.9 138.6 -29.4Q135.3 -24.9 133 -18.4Q132 -15.4 131.4 -13.6Q130.8 -11.7 130.5 -10.6Q130.3 -9.5 130.3 -8.6Q130.3 -7.4 130.7 -6.3Q131.1 -5.2 131.1 -3.9Q131.1 -1.6 128.8 -0.3Q126.6 1 122.6 1Q119.3 1 118.8 -1.7Q118.2 -4.3 120.2 -9.3L128.3 -31.7Q129.8 -35.7 129.6 -37.2Q129.4 -38.8 127.8 -38.8Q127 -38.8 126 -38.3Q125 -37.8 123.7 -36.6Q122.9 -36 122.3 -35.8Q121.7 -35.6 121.2 -35.9Q120.5 -36.2 120.5 -37.2Q120.4 -38.1 121.1 -39.2Q123.1 -42.4 126.6 -44.3Q130.1 -46.3 133.8 -46.3Q136.7 -46.3 138.2 -45.1Q139.7 -43.8 139.7 -41.4Q139.7 -39.6 138.9 -37.4Q138.1 -35.2 136.9 -32.6Q135.7 -29.9 134.4 -26.5Q133 -23.2 131.9 -19L130.8 -19.9Q134.7 -29.5 139.6 -35.3Q144.5 -41.1 149.5 -43.7Q154.5 -46.3 158.8 -46.3Q162.2 -46.3 163.8 -44.8Q165.5 -43.4 165.4 -40.7Q165.3 -38.8 164.6 -36.6Q163.9 -34.4 162.8 -31.8Q161.7 -29.1 160.5 -26Q159.2 -22.8 158.1 -19L156.9 -19.9Q159.6 -26.8 163 -31.8Q166.4 -36.8 170.2 -40Q173.9 -43.2 177.6 -44.7Q181.4 -46.3 184.7 -46.3Q188.6 -46.3 190.1 -44.3Q191.6 -42.3 191.4 -38.9Q191.1 -35.5 189.6 -31.3L183.4 -13.8Q182 -9.9 182.3 -8.3Q182.5 -6.7 184 -6.7Q184.8 -6.7 185.8 -7.2Q186.7 -7.6 187.9 -8.8Q188.7 -9.4 189.2 -9.6Q189.8 -9.8 190.3 -9.5Q190.9 -9.1 190.9 -8.2Q191 -7.3 190.3 -6.1Q188.6 -3 185.3 -1Q182.1 1 178.1 1Q174.7 1 173.2 -0.5Q171.7 -2.1 171.8 -4.9Q171.9 -7.7 173.2 -11.6L179.5 -30Q181.1 -34.6 180.5 -36.6Q180 -38.6 177.4 -38.6Q174.8 -38.6 171.3 -36.2Q167.9 -33.9 164.5 -29.2Q161.1 -24.5 158.7 -17.4Q157.8 -14.7 157.3 -13.1Q156.7 -11.4 156.5 -10.4Q156.3 -9.4 156.3 -8.7Q156.3 -7.4 156.8 -6.3Q157.2 -5.2 157.2 -3.9Q157.2 -1.6 155 -0.3Q152.9 1 149.4 1Q146.9 1 146 -0.4Q145 -1.8 145.2 -4.1Q145.4 -6.5 146.4 -9.3Z M224.2 -48.8 206.6 13.6Q206.1 15.4 206.3 16.7Q206.6 17.9 208.5 18.3L211.6 18.8Q212.8 19 213.3 19.6Q213.8 20.2 213.9 20.9Q213.9 22 213.1 22.7Q212.2 23.4 210.9 23.4L191.7 23.8Q190.7 23.9 190 23.3Q189.3 22.8 189.3 21.8Q189.3 21 189.8 20.3Q190.4 19.6 191.6 19Q193.2 18.6 194.1 18Q195 17.5 195.6 16.6Q196.1 15.8 196.4 14.6L215 -49.3Q215.3 -50.4 215.8 -51.3Q216.3 -52.2 217 -52.9Q217.7 -53.6 218.5 -54.1Q219.3 -54.5 220.2 -54.8Q221 -55 221.9 -55Q223.9 -55 224.5 -53.4Q225.1 -51.8 224.2 -48.8ZM205.8 -32.9Q204.9 -32.1 203.9 -31.9Q202.9 -31.8 202.2 -32.4Q201.5 -33 201.8 -34.2Q202.1 -35.3 203.2 -36.4Q206.6 -39.9 210.5 -42.1Q214.5 -44.4 218.9 -45.5Q223.4 -46.6 228.3 -46.4Q234.5 -46.2 238.7 -43.5Q242.9 -40.7 244.8 -35.5Q246.6 -30.3 245.6 -22.8Q244.7 -15.3 241.1 -9.9Q237.5 -4.5 232.3 -1.6Q227.1 1.2 221.1 1Q215.7 0.8 212.3 -1.5Q209 -3.9 207.8 -8.1L211.2 -9.6Q212.4 -7.1 214.3 -5.7Q216.3 -4.3 219.2 -4.1Q222.9 -3.9 226.2 -6.1Q229.6 -8.2 232 -12.7Q234.5 -17.2 235.5 -23.9Q236.3 -29.6 235.4 -33.5Q234.4 -37.3 232.1 -39.4Q229.8 -41.5 226.5 -41.8Q221.5 -42.3 216.3 -40.1Q211.1 -38 205.8 -32.9Z M290.2 -12.6Q289.4 -9.4 289.7 -8Q290 -6.7 291.4 -6.7Q292.3 -6.7 293.2 -7.2Q294.1 -7.7 295.3 -8.8Q296 -9.4 296.5 -9.6Q297.1 -9.8 297.5 -9.5Q298.1 -9.3 298.2 -8.4Q298.3 -7.6 297.7 -6.2Q296.1 -3.1 292.9 -1Q289.6 1 285.8 1Q283.1 1 281.7 -0.5Q280.3 -1.9 280.3 -4.8Q280.3 -6 280.5 -7.3Q280.6 -8.7 281.1 -10.7Q281.6 -12.7 282.4 -15.7Q283.3 -18.7 284.6 -23L285.4 -21Q282.4 -13.8 278.6 -8.9Q274.8 -4 270.5 -1.5Q266.3 1 261.7 1Q256.8 1 254 -2.5Q251.2 -5.9 251.9 -13.3Q252.3 -18.3 254.2 -23.1Q256.2 -27.9 259.4 -32.1Q262.6 -36.3 266.8 -39.5Q271 -42.7 276.1 -44.5Q281.1 -46.4 286.6 -46.4Q291.1 -46.4 293.9 -45.7Q296.8 -45.1 298.1 -43.9Q299.5 -42.8 299.3 -41.3Q299.2 -40.1 298.6 -39.3Q298 -38.6 297.3 -37.9Q296.6 -37.1 296.3 -36ZM262.2 -14.1Q261.7 -9.3 263 -7.3Q264.3 -5.3 266.6 -5.3Q268.9 -5.3 271.6 -7.2Q274.2 -9.1 276.8 -12.4Q279.3 -15.7 281.6 -19.8Q283.8 -24 285.3 -28.4Q286.9 -32.9 287.4 -37.1Q287.6 -39.3 286.8 -40.3Q285.9 -41.4 284 -41.4Q281.1 -41.4 278.1 -39.9Q275.2 -38.4 272.5 -35.7Q269.8 -33 267.6 -29.5Q265.4 -26 264 -22.1Q262.6 -18.1 262.2 -14.1Z M309 -35.9Q308.3 -36.2 308.3 -37.2Q308.3 -38.1 309 -39.3Q311 -42.5 314.5 -44.4Q317.9 -46.3 321.7 -46.3Q324.6 -46.3 326.1 -45.1Q327.6 -43.8 327.6 -41.4Q327.6 -40 327 -38.1Q326.4 -36.2 325.3 -33.6Q324.3 -31 322.9 -27.4Q321.5 -23.9 319.8 -19L318.6 -19.9Q321.7 -27.3 325.3 -32.4Q329 -37.5 332.8 -40.5Q336.6 -43.6 340.3 -44.9Q344 -46.3 347.1 -46.3Q351.1 -46.3 352.7 -44.4Q354.3 -42.6 354.1 -39.2Q353.8 -35.8 352.2 -31.2L345.9 -13.3Q344.6 -9.8 344.9 -8.2Q345.1 -6.7 346.6 -6.7Q347.4 -6.7 348.3 -7.2Q349.2 -7.6 350.5 -8.8Q351.2 -9.4 351.7 -9.6Q352.3 -9.8 352.8 -9.5Q353.4 -9.1 353.4 -8.2Q353.5 -7.3 352.8 -6.1Q351 -2.9 347.8 -0.9Q344.5 1 340.7 1Q337.5 1 335.9 -0.4Q334.4 -1.8 334.3 -4.5Q334.3 -7.2 335.6 -11L342 -29.7Q343.7 -34.6 343.2 -36.6Q342.6 -38.6 339.9 -38.6Q337.8 -38.6 335.2 -37.3Q332.6 -35.9 329.9 -33.3Q327.2 -30.6 324.8 -26.8Q322.4 -22.9 320.7 -17.9Q319.7 -14.9 319.1 -13.2Q318.6 -11.4 318.4 -10.4Q318.1 -9.4 318.1 -8.6Q318.1 -7.4 318.5 -6.3Q319 -5.2 319 -3.8Q319 -1.6 316.7 -0.3Q314.4 1 310.5 1Q307.3 1 306.7 -1.5Q306 -4 307.9 -8.9L316.2 -31.6Q317.7 -35.7 317.4 -37.2Q317.2 -38.8 315.6 -38.8Q314.8 -38.8 313.8 -38.3Q312.9 -37.8 311.6 -36.6Q310.8 -36 310.2 -35.8Q309.6 -35.6 309 -35.9Z M375.9 -13.5Q374.5 -9.7 374.8 -8.2Q375.1 -6.7 376.6 -6.7Q377.4 -6.7 378.3 -7.1Q379.2 -7.6 380.5 -8.8Q381.3 -9.4 381.8 -9.6Q382.4 -9.8 382.9 -9.5Q383.5 -9.1 383.6 -8.2Q383.6 -7.3 382.9 -6Q381.2 -2.9 377.9 -1Q374.7 1 370.7 1Q367.7 1 366 -0.4Q364.4 -1.8 364.3 -4.5Q364.2 -7.3 365.7 -11.2L373.4 -31.7Q374.9 -35.6 374.6 -37.2Q374.4 -38.8 372.8 -38.8Q372 -38.8 371 -38.2Q370.1 -37.7 368.8 -36.6Q368 -36 367.4 -35.8Q366.8 -35.6 366.3 -35.8Q365.6 -36.2 365.6 -37.1Q365.5 -38 366.3 -39.3Q368.1 -42.3 371.5 -44.3Q374.9 -46.3 378.6 -46.3Q381.4 -46.3 383.1 -44.9Q384.7 -43.5 384.9 -40.7Q385.1 -37.9 383.5 -33.7ZM382.3 -55.4Q379.3 -55.4 377.7 -57.1Q376.1 -58.8 376.3 -61.2Q376.5 -63.1 377.6 -64.8Q378.8 -66.5 380.8 -67.6Q382.8 -68.7 385.3 -68.7Q388.5 -68.7 390 -67Q391.5 -65.2 391.2 -62.7Q391.1 -60.8 389.9 -59.1Q388.7 -57.4 386.8 -56.4Q384.8 -55.4 382.3 -55.4Z M420.5 -46.3Q426.5 -46.1 430.6 -43.2Q434.6 -40.4 436.2 -35.4Q437.9 -30.3 436.8 -23.6Q435.8 -17.8 433.3 -13.1Q430.8 -8.5 427 -5.3Q423.2 -2 418.5 -0.4Q413.8 1.2 408.5 1Q402.8 0.8 398.8 -2Q394.8 -4.8 393.1 -9.8Q391.4 -14.9 392.5 -21.8Q393.4 -27.1 395.8 -31.7Q398.2 -36.2 401.9 -39.6Q405.5 -43 410.3 -44.8Q415 -46.6 420.5 -46.3ZM409.8 -3.8Q411.8 -3.7 413.8 -4.5Q415.8 -5.3 417.7 -7Q419.6 -8.7 421.2 -11.2Q422.8 -13.8 424.1 -17.2Q425.3 -20.5 426.1 -24.7Q427.1 -30.2 426.5 -33.8Q425.9 -37.5 424 -39.4Q422.2 -41.3 419.4 -41.5Q417.3 -41.7 415.2 -40.8Q413.2 -39.9 411.3 -38Q409.4 -36.2 407.8 -33.6Q406.2 -30.9 405 -27.6Q403.8 -24.3 403.1 -20.4Q402.1 -14.9 402.7 -11.3Q403.3 -7.7 405.2 -5.9Q407.1 -4 409.8 -3.8Z M446.1 -35.9Q445.4 -36.2 445.4 -37.2Q445.4 -38.1 446.1 -39.3Q448.1 -42.5 451.6 -44.4Q455 -46.3 458.8 -46.3Q461.7 -46.3 463.2 -45.1Q464.7 -43.8 464.7 -41.4Q464.7 -40 464.1 -38.1Q463.5 -36.2 462.4 -33.6Q461.4 -31 460 -27.4Q458.6 -23.9 456.9 -19L455.7 -19.9Q458.8 -27.3 462.4 -32.4Q466.1 -37.5 469.9 -40.5Q473.7 -43.6 477.4 -44.9Q481.1 -46.3 484.2 -46.3Q488.2 -46.3 489.8 -44.4Q491.4 -42.6 491.2 -39.2Q490.9 -35.8 489.3 -31.2L483 -13.3Q481.7 -9.8 482 -8.2Q482.2 -6.7 483.7 -6.7Q484.5 -6.7 485.4 -7.2Q486.3 -7.6 487.6 -8.8Q488.3 -9.4 488.8 -9.6Q489.4 -9.8 489.9 -9.5Q490.5 -9.1 490.5 -8.2Q490.6 -7.3 489.9 -6.1Q488.1 -2.9 484.9 -0.9Q481.6 1 477.8 1Q474.6 1 473 -0.4Q471.5 -1.8 471.4 -4.5Q471.4 -7.2 472.7 -11L479.1 -29.7Q480.8 -34.6 480.3 -36.6Q479.7 -38.6 477 -38.6Q474.9 -38.6 472.3 -37.3Q469.7 -35.9 467 -33.3Q464.3 -30.6 461.9 -26.8Q459.5 -22.9 457.8 -17.9Q456.8 -14.9 456.2 -13.2Q455.7 -11.4 455.5 -10.4Q455.2 -9.4 455.2 -8.6Q455.2 -7.4 455.6 -6.3Q456.1 -5.2 456.1 -3.8Q456.1 -1.6 453.8 -0.3Q451.5 1 447.6 1Q444.4 1 443.8 -1.5Q443.1 -4 445 -8.9L453.3 -31.6Q454.8 -35.7 454.5 -37.2Q454.3 -38.8 452.7 -38.8Q451.9 -38.8 450.9 -38.3Q450 -37.8 448.7 -36.6Q447.9 -36 447.3 -35.8Q446.7 -35.6 446.1 -35.9Z" fill="currentColor"/></g>
</svg>
