<svg xmlns="http://www.w3.org/2000/svg" viewBox="0 0 64 64" role="img" aria-labelledby="t">
  <title id="t">Mindful Companion mark</title>
  <defs><linearGradient id="mc-g" gradientUnits="userSpaceOnUse" x1="0" y1="8" x2="0" y2="58"><stop offset="0.000" stop-color="#f0916f" stop-opacity="1.0"/><stop offset="0.333" stop-color="#a98be0" stop-opacity="1.0"/><stop offset="0.667" stop-color="#6fa8e8" stop-opacity="1.0"/><stop offset="1.000" stop-color="#6ec9a5" stop-opacity="1.0"/></linearGradient></defs><g transform="translate(32 32) scale(0.9) translate(-32 -32)"><g transform="translate(-3.5 0)"><path d="M 16.5 9 C 21 11.5, 23.6 17, 24 22 C 24.1 23.4, 23.4 24.4, 23.6 25.4 C 25.6 27.8, 28.6 30.4, 29.4 32.6 C 29.9 33.9, 29.1 34.8, 27.8 35 C 26.9 35.2, 26.1 35.3, 25.3 35.6 C 25.5 36.8, 26.4 37.5, 26.6 38.6 C 26.3 39.3, 25.9 39.6, 25.9 39.9 C 26.8 40.5, 27 41.7, 26.2 42.8 C 25.7 43.6, 26.2 44.6, 26.8 45.6 C 27.2 47.2, 25.9 48.9, 23.8 49.8 C 22.6 50.3, 21.8 50.6, 21.2 51 L 19.8 58" stroke="#46425c" stroke-width="2.8" fill="none" stroke-linecap="round" stroke-linejoin="round"/><path d="M 19 27.4 Q 20.8 28.9, 22.6 27.2" stroke="#46425c" stroke-width="2.24" fill="none" stroke-linecap="round" stroke-linejoin="round"/></g><path d="M 32 6 V 58" stroke="#46425c" stroke-width="1.20" stroke-linecap="round" opacity="0.28"/><g transform="matrix(-1 0 0 1 64 0) translate(-3.5 0)" opacity="1.0"><path d="M 16.5 9 C 21 11.5, 23.6 17, 24 22 C 24.1 23.4, 23.4 24.4, 23.6 25.4 C 25.6 27.8, 28.6 30.4, 29.4 32.6 C 29.9 33.9, 29.1 34.8, 27.8 35 C 26.9 35.2, 26.1 35.3, 25.3 35.6 C 25.5 36.8, 26.4 37.5, 26.6 38.6 C 26.3 39.3, 25.9 39.6, 25.9 39.9 C 26.8 40.5, 27 41.7, 26.2 42.8 C 25.7 43.6, 26.2 44.6, 26.8 45.6 C 27.2 47.2, 25.9 48.9, 23.8 49.8 C 22.6 50.3, 21.8 50.6, 21.2 51 L 19.8 58" stroke="url(#mc-g)" stroke-width="2.8" fill="none" stroke-linecap="round" stroke-linejoin="round"/><path d="M 19 27.4 Q 20.8 28.9, 22.6 27.2" stroke="url(#mc-g)" stroke-width="2.24" fill="none" stroke-linecap="round" stroke-linejoin="round"/></g></g>
</svg>
